<svg width="80" height="80" viewBox="0 0 80 80" fill="none" xmlns="http://www.w3.org/2000/svg">
<g clip-path="url(#clip0_25_1561)">
<g clip-path="url(#clip1_25_1561)">
<path d="M77.7014 7.53955H70.8984V17.7483H80.0004V9.83878C80.0004 8.55288 78.9874 7.53955 77.7014 7.53955Z" fill="white"/>
<path d="M68.1397 7.53955H2.29885C1.01297 7.53955 0 8.5525 0 9.8384V17.7479H68.1397V7.53955ZM8.45977 15.3557C6.89727 15.3557 5.70115 14.1595 5.70115 12.597C5.70115 11.0345 6.89727 9.8384 8.45977 9.8384C9.9325 9.8384 11.2184 11.0345 11.2184 12.597C11.2184 14.1595 10.0223 15.3557 8.45977 15.3557ZM17.8382 15.3557C16.2757 15.3557 15.0795 14.1595 15.0795 12.597C15.0795 11.0345 16.2757 9.8384 17.8382 9.8384C19.4007 9.8384 20.5968 11.0345 20.5968 12.597C20.5968 14.1595 19.4042 15.3557 17.8382 15.3557ZM27.3102 15.3557C25.8375 15.3557 24.5517 14.1595 24.5517 12.597C24.5517 11.0345 25.8375 9.8384 27.3102 9.8384C28.8727 9.8384 30.069 11.0345 30.069 12.597C30.069 14.1595 28.783 15.3557 27.3102 15.3557Z" fill="white"/>
<path d="M0 70.1619C0 71.4479 1.01297 72.4609 2.29885 72.4609H77.7012C78.987 72.4609 80 71.4479 80 70.1619V20.5068H0V70.1619ZM54.2528 36.5049C54.806 35.9519 55.6323 35.9519 56.1855 36.5049L65.2872 45.5172C65.564 45.7939 65.6537 46.1602 65.6537 46.5302C65.6537 46.8967 65.4705 47.2667 65.2872 47.5432L56.2752 56.5554C55.9985 56.8319 55.6322 56.9217 55.2622 56.9217C54.8957 56.9217 54.5257 56.8284 54.2492 56.5554C53.696 56.0022 53.696 55.1762 54.2492 54.6229L62.2485 46.6237L54.1558 38.5309C53.6995 37.8844 53.6997 37.0582 54.2528 36.5049ZM28.3228 61.7022L49.2892 29.7014C49.749 29.0584 50.575 28.8752 51.2217 29.3349C51.8647 29.7014 52.0478 30.6209 51.588 31.2674L30.6217 63.2647C30.345 63.6312 29.8853 63.9077 29.4255 63.9077C29.149 63.9077 28.8723 63.8142 28.6893 63.7244C28.1395 63.2647 27.9527 62.3452 28.3228 61.7022ZM14.7127 45.5164L23.8146 36.5042C24.3678 35.9512 25.194 35.9512 25.7472 36.5042C26.3002 37.0574 26.3002 37.8837 25.7472 38.4367L17.6544 46.5294L25.6537 54.5287C26.2067 55.0819 26.2067 55.9082 25.6537 56.4612C25.377 56.7379 25.0107 56.8277 24.6407 56.8277C24.2743 56.8277 23.9044 56.7342 23.6278 56.4612L14.6156 47.4489C14.339 47.1724 14.2492 46.8062 14.2492 46.4362C14.3462 46.1594 14.5295 45.7932 14.7127 45.5164Z" fill="white"/>
</g>
</g>
<defs>
<clipPath id="clip0_25_1561">
<rect width="80" height="80" fill="white"/>
</clipPath>
<clipPath id="clip1_25_1561">
<rect width="80" height="80" fill="white"/>
</clipPath>
</defs>
</svg>
