<svg width="44" height="45" viewBox="0 0 44 45" fill="none" xmlns="http://www.w3.org/2000/svg">
<mask id="mask0_25_1481" style="mask-type:luminance" maskUnits="userSpaceOnUse" x="0" y="0" width="44" height="45">
<path d="M44 0.75H0V44.75H44V0.75Z" fill="white"/>
</mask>
<g mask="url(#mask0_25_1481)">
<mask id="mask1_25_1481" style="mask-type:luminance" maskUnits="userSpaceOnUse" x="0" y="0" width="44" height="45">
<path d="M44 0.75H0V44.75H44V0.75Z" fill="white"/>
</mask>
<g mask="url(#mask1_25_1481)">
<path d="M40.8501 18.7553C41.342 17.2737 41.5122 15.7043 41.3491 14.1517C41.1861 12.5991 40.6936 11.0992 39.9046 9.75217C38.7349 7.71612 36.9488 6.10412 34.8039 5.14859C32.6589 4.19306 30.266 3.94337 27.97 4.4355C26.6656 2.98454 25.0023 1.90234 23.1473 1.29759C21.2923 0.692852 19.3108 0.586861 17.4019 0.990266C15.4929 1.39367 13.7238 2.29227 12.272 3.59581C10.8202 4.89935 9.73705 6.56194 9.1312 8.41659C7.60159 8.73025 6.15654 9.36678 4.89263 10.2836C3.62873 11.2005 2.57507 12.3766 1.80208 13.7333C0.619647 15.7659 0.114282 18.1219 0.35905 20.4607C0.603818 22.7995 1.58604 24.9999 3.1637 26.7437C2.66992 28.2245 2.49806 29.7937 2.65962 31.3464C2.82119 32.899 3.31244 34.3992 4.10053 35.7466C5.27174 37.7834 7.05938 39.3958 9.20583 40.3513C11.3523 41.3069 13.7467 41.5562 16.044 41.0635C17.0803 42.2305 18.3536 43.163 19.779 43.7987C21.2044 44.4344 22.749 44.7587 24.3097 44.75C26.6631 44.7521 28.9562 44.0064 30.8582 42.6205C32.7601 41.2346 34.1725 39.2802 34.8914 37.0393C36.4208 36.7251 37.8656 36.0883 39.1295 35.1715C40.3933 34.2547 41.4471 33.0788 42.2205 31.7225C43.3889 29.6928 43.8856 27.3456 43.6395 25.0166C43.3933 22.6876 42.417 20.4959 40.8501 18.7553ZM24.3097 41.8701C22.3824 41.8732 20.5155 41.1977 19.0363 39.962L19.2965 39.8146L28.0567 34.7579C28.2747 34.63 28.4557 34.4477 28.582 34.2287C28.7082 34.0097 28.7753 33.7616 28.7767 33.5089V21.1579L32.48 23.3003C32.4983 23.3096 32.5141 23.3231 32.5263 23.3396C32.5384 23.3562 32.5464 23.3754 32.5497 23.3957V33.6304C32.545 35.8143 31.6754 37.9075 30.1311 39.4517C28.5868 40.996 26.4937 41.8655 24.3097 41.8701ZM6.59845 34.3069C5.63187 32.6379 5.28482 30.6815 5.61835 28.7818L5.87868 28.938L14.6475 33.9947C14.8645 34.122 15.1115 34.1891 15.3631 34.1891C15.6146 34.1891 15.8616 34.122 16.0786 33.9947L26.7904 27.8191V32.0952C26.7894 32.1173 26.7834 32.139 26.7729 32.1585C26.7623 32.178 26.7475 32.1949 26.7296 32.2079L17.8566 37.3253C15.963 38.4162 13.7139 38.711 11.6031 38.1451C9.49232 37.5792 7.69237 36.1987 6.59845 34.3069ZM4.29138 15.2252C5.26467 13.5455 6.80091 12.2643 8.62813 11.6084V22.0166C8.62484 22.2681 8.68908 22.5158 8.81417 22.734C8.93926 22.9521 9.12061 23.1327 9.33928 23.2569L19.999 29.4064L16.2955 31.5487C16.2755 31.5593 16.2531 31.5649 16.2304 31.5649C16.2077 31.5649 16.1854 31.5593 16.1653 31.5487L7.30978 26.4401C5.41973 25.3445 4.04086 23.5446 3.47512 21.4345C2.90939 19.3244 3.2029 17.0761 4.29138 15.182V15.2252ZM34.7179 22.2942L24.0236 16.084L27.7185 13.95C27.7385 13.9393 27.7608 13.9337 27.7835 13.9337C27.8062 13.9337 27.8286 13.9393 27.8486 13.95L36.7042 19.0673C38.0582 19.8486 39.162 20.999 39.8868 22.384C40.6115 23.7691 40.9273 25.3318 40.7973 26.8896C40.6672 28.4475 40.0967 29.9361 39.1524 31.1819C38.208 32.4276 36.9287 33.3791 35.4639 33.925V23.5168C35.4562 23.2658 35.3834 23.0211 35.2526 22.8067C35.1218 22.5923 34.9377 22.4158 34.7179 22.2942ZM38.4042 16.7518L38.1439 16.5956L29.3925 11.4957C29.1742 11.3676 28.9256 11.3 28.6725 11.3C28.4194 11.3 28.1709 11.3676 27.9526 11.4957L17.2498 17.6711V13.3952C17.2475 13.3734 17.2511 13.3515 17.2603 13.3316C17.2694 13.3118 17.2838 13.2948 17.3018 13.2824L26.1574 8.17367C27.5146 7.39179 29.0664 7.01251 30.6313 7.08019C32.1962 7.14788 33.7094 7.65973 34.9941 8.55589C36.2788 9.45205 37.2817 10.6955 37.8856 12.1407C38.4895 13.5859 38.6695 15.1733 38.4044 16.717L38.4042 16.7518ZM15.2285 24.3321L11.5252 22.1985C11.5066 22.1873 11.4908 22.1722 11.4788 22.1543C11.4667 22.1363 11.4588 22.1159 11.4555 22.0945V11.886C11.4575 10.3199 11.9054 8.78677 12.7466 7.46582C13.5879 6.14487 14.7878 5.09071 16.2061 4.42659C17.6244 3.76247 19.2025 3.51583 20.7558 3.71552C22.3091 3.9152 23.7734 4.55295 24.9776 5.5542L24.7173 5.70179L15.9573 10.7581C15.7392 10.886 15.5582 11.0684 15.432 11.2874C15.3058 11.5064 15.2387 11.7544 15.2373 12.0072L15.2285 24.3321ZM17.2408 19.9956L22.0111 17.2459L26.7904 19.9956V25.4945L22.0285 28.2439L17.2496 25.4945L17.2408 19.9956Z" fill="black"/>
</g>
</g>
</svg>
