<svg width="63" height="62" viewBox="0 0 63 62" fill="none" xmlns="http://www.w3.org/2000/svg">
<path d="M62.6499 31C62.6499 13.8792 48.7707 0 31.6499 0C14.5291 0 0.649902 13.8792 0.649902 31C0.649902 48.1208 14.5291 62 31.6499 62C48.7707 62 62.6499 48.1208 62.6499 31Z" fill="#703FFF"/>
<path d="M21.0718 35.3612C20.3485 35.7788 20.1007 36.7036 20.5183 37.4269C20.9359 38.1502 21.8607 38.398 22.584 37.9805L21.0718 35.3612ZM42.9326 25.7207C43.1487 24.914 42.67 24.0848 41.8633 23.8686L28.7172 20.3462C27.9106 20.13 27.0814 20.6088 26.8652 21.4155C26.649 22.2222 27.1278 23.0514 27.9345 23.2676L39.6198 26.3986L36.4887 38.084C36.2726 38.8907 36.7513 39.7199 37.558 39.936C38.3647 40.1522 39.194 39.6734 39.4101 38.8668L42.9326 25.7207ZM22.584 37.9805L42.228 26.6389L40.7158 24.0197L21.0718 35.3612L22.584 37.9805Z" fill="#171717"/>
</svg>
