<svg width="164" height="18" viewBox="0 0 164 18" fill="none" xmlns="http://www.w3.org/2000/svg">
<mask id="mask0_25_1538" style="mask-type:luminance" maskUnits="userSpaceOnUse" x="0" y="0" width="164" height="18">
<path d="M163.954 0.200684H0.0449219V17.8772H163.954V0.200684Z" fill="white"/>
</mask>
<g mask="url(#mask0_25_1538)">
<mask id="mask1_25_1538" style="mask-type:luminance" maskUnits="userSpaceOnUse" x="0" y="-1" width="164" height="20">
<path d="M163.954 -0.163086H0.0449219V18.2411H163.954V-0.163086Z" fill="white"/>
</mask>
<g mask="url(#mask1_25_1538)">
<path d="M40.1582 3.57381H46.1321V17.9362H49.945V3.57381H55.9188V0.14209H40.1582V3.57381Z" fill="#1F1F1E"/>
<path d="M33.4217 12.598L25.4143 0.14209H21.0928V17.9362H24.7787V5.48032L32.7862 17.9362H37.1075V0.14209H33.4217V12.598Z" fill="#1F1F1E"/>
<path d="M71.1709 7.23432H62.7823V0.14209H58.9692V17.9362H62.7823V10.666H71.1709V17.9362H74.984V0.14209H71.1709V7.23432Z" fill="#1F1F1E"/>
<path d="M7.13715 0.14209L0.0449219 17.9362H4.01047L5.46094 14.1995H12.8808L14.3311 17.9362H18.2967L11.2044 0.14209H7.13715ZM6.74366 10.8948L9.17075 4.64146L11.598 10.8948H6.74366Z" fill="#1F1F1E"/>
<path d="M106.581 -0.163086C101.446 -0.163086 97.8115 3.64995 97.8115 9.06441C97.8115 14.4281 101.446 18.2411 106.581 18.2411C111.691 18.2411 115.3 14.4281 115.3 9.06441C115.3 3.64995 111.691 -0.163086 106.581 -0.163086ZM106.581 14.6823C103.581 14.6823 101.752 12.547 101.752 9.06441C101.752 5.53103 103.581 3.39575 106.581 3.39575C109.555 3.39575 111.36 5.53103 111.36 9.06441C111.36 12.547 109.555 14.6823 106.581 14.6823Z" fill="#1F1F1E"/>
<path d="M159.887 11.9623C159.226 13.6909 157.904 14.6823 156.099 14.6823C153.099 14.6823 151.269 12.547 151.269 9.06441C151.269 5.53103 153.099 3.39575 156.099 3.39575C157.904 3.39575 159.226 4.38712 159.887 6.1157H163.929C162.938 2.30268 159.963 -0.163086 156.099 -0.163086C150.965 -0.163086 147.33 3.64995 147.33 9.06441C147.33 14.4281 150.965 18.2411 156.099 18.2411C159.988 18.2411 162.962 15.75 163.954 11.9623H159.887Z" fill="#1F1F1E"/>
<path d="M135.585 0.14209L142.678 17.9362H146.567L139.475 0.14209H135.585Z" fill="#1F1F1E"/>
<path d="M127.553 0.14209H118.859V17.9362H122.672V11.4795H127.553C131.595 11.4795 134.06 9.34421 134.06 5.81078C134.06 2.27736 131.595 0.14209 127.553 0.14209ZM127.375 8.0478H122.672V3.57381H127.375C129.256 3.57381 130.247 4.33641 130.247 5.81078C130.247 7.28515 129.256 8.0478 127.375 8.0478Z" fill="#1F1F1E"/>
<path d="M94.8874 5.55658C94.8874 2.20112 92.4224 0.14209 88.3801 0.14209H79.6865V17.9362H83.4997V10.9711H87.7445L91.5578 17.9362H95.7777L91.5554 10.4406C93.6742 9.62583 94.8874 7.91024 94.8874 5.55658ZM83.4997 3.57372H88.2025C90.0835 3.57372 91.0749 4.26007 91.0749 5.55658C91.0749 6.85308 90.0835 7.53944 88.2025 7.53944H83.4997V3.57372Z" fill="#1F1F1E"/>
</g>
</g>
</svg>
