<svg width="189" height="25" viewBox="0 0 189 25" fill="none" xmlns="http://www.w3.org/2000/svg">
<path d="M58.7001 10.6H50.3801V23.72H47.3401V10.6H44.1401V7.72H47.3401V5.992C47.3401 4.3493 47.8094 3.112 48.7481 2.28C49.7081 1.4267 51.1161 1 52.9721 1C53.5268 1 54.0814 1.032 54.6361 1.096C55.1908 1.16 55.5854 1.224 55.8201 1.288V4.072C55.2228 3.944 54.3054 3.88 53.0681 3.88C52.0654 3.88 51.3614 4.0613 50.9561 4.424C50.5721 4.7867 50.3801 5.3093 50.3801 5.992V7.72H58.7001V10.6ZM63.7794 3.88C62.9047 3.88 62.286 4.0613 61.9234 4.424C61.582 4.7867 61.4114 5.3093 61.4114 5.992V7.72H65.8914V10.6H61.4114V23.72H58.3714V10.6H55.1714V7.72H58.3714V5.992C58.3714 4.3493 58.8194 3.112 59.7154 2.28C60.6114 1.4267 61.934 1 63.6834 1C64.5367 1 65.2727 1.096 65.8914 1.288V4.072C65.294 3.944 64.59 3.88 63.7794 3.88ZM85.8989 4.392H77.8989V23.72H74.6989V4.392H66.6989V1.32H85.8989V4.392ZM96.8711 7.4C98.2151 7.4 99.4204 7.6773 100.487 8.232C101.575 8.7867 102.428 9.6293 103.047 10.76C103.666 11.8693 103.975 13.2347 103.975 14.856V23.72H100.935V14.92C100.935 13.512 100.519 12.392 99.6871 11.56C98.8551 10.728 97.8098 10.312 96.5511 10.312C95.6978 10.312 94.9191 10.536 94.2151 10.984C93.5111 11.432 92.9564 12.04 92.5511 12.808C92.1671 13.5547 91.9751 14.3653 91.9751 15.24V23.72H88.9351V1.16H91.8151V9.864C92.4338 9.1173 93.1911 8.52 94.0871 8.072C94.9831 7.624 95.9111 7.4 96.8711 7.4ZM115.531 7.4C117.173 7.4 118.603 7.752 119.819 8.456C121.056 9.16 122.005 10.1627 122.667 11.464C123.328 12.744 123.659 14.248 123.659 15.976C123.659 16.424 123.648 16.7547 123.627 16.968H110.507C110.72 18.2053 111.296 19.2293 112.235 20.04C113.195 20.8293 114.304 21.224 115.563 21.224C117.632 21.224 119.104 20.4667 119.979 18.952H123.115C122.603 20.4453 121.653 21.672 120.267 22.632C118.88 23.5707 117.312 24.04 115.563 24.04C114.005 24.04 112.597 23.688 111.339 22.984C110.08 22.2587 109.099 21.2667 108.395 20.008C107.691 18.728 107.339 17.2987 107.339 15.72C107.339 14.1413 107.691 12.7227 108.395 11.464C109.099 10.184 110.069 9.192 111.307 8.488C112.565 7.7627 113.973 7.4 115.531 7.4ZM115.467 10.088C114.208 10.088 113.12 10.4827 112.203 11.272C111.307 12.0613 110.752 13.0747 110.539 14.312H120.363C120.235 13.032 119.712 12.008 118.795 11.24C117.899 10.472 116.789 10.088 115.467 10.088ZM148.461 12.2V23.72H145.581V19.944C144.707 21.2027 143.576 22.2053 142.189 22.952C140.824 23.6773 139.267 24.04 137.517 24.04C135.427 24.04 133.517 23.5387 131.789 22.536C130.061 21.512 128.696 20.1253 127.693 18.376C126.712 16.6053 126.221 14.6533 126.221 12.52C126.221 10.3867 126.723 8.4453 127.725 6.696C128.749 4.9253 130.136 3.5387 131.885 2.536C133.635 1.512 135.576 1 137.709 1C139.949 1 141.965 1.608 143.757 2.824C145.571 4.04 146.872 5.672 147.661 7.72H144.013C143.352 6.5893 142.477 5.704 141.389 5.064C140.301 4.4027 139.075 4.072 137.709 4.072C136.195 4.072 134.819 4.4453 133.581 5.192C132.344 5.9387 131.363 6.9627 130.637 8.264C129.933 9.544 129.581 10.9627 129.581 12.52C129.581 14.0773 129.933 15.5067 130.637 16.808C131.341 18.088 132.301 19.1013 133.517 19.848C134.733 20.5947 136.077 20.968 137.549 20.968C139.533 20.968 141.187 20.4133 142.509 19.304C143.853 18.1733 144.739 16.776 145.165 15.112H137.197V12.2H148.461ZM161.408 7.4C161.92 7.4 162.4 7.432 162.848 7.496V10.472C162.464 10.3867 161.856 10.344 161.024 10.344C160.085 10.344 159.253 10.5573 158.528 10.984C157.824 11.4107 157.269 11.9867 156.864 12.712C156.48 13.416 156.288 14.1947 156.288 15.048V23.72H153.248V7.72H156.128V10.184C156.725 9.3307 157.482 8.6587 158.4 8.168C159.338 7.656 160.341 7.4 161.408 7.4ZM169.1 7.72V23.72H166.06V7.72H169.1ZM169.292 1.32V4.84H165.9V1.32H169.292ZM188.776 1.16V23.72H185.736V21.32C185.075 22.1733 184.275 22.8453 183.336 23.336C182.398 23.8053 181.395 24.04 180.328 24.04C178.92 24.04 177.64 23.688 176.488 22.984C175.336 22.2587 174.43 21.2667 173.768 20.008C173.107 18.7493 172.776 17.32 172.776 15.72C172.776 14.12 173.107 12.6907 173.768 11.432C174.43 10.1733 175.336 9.192 176.488 8.488C177.64 7.7627 178.92 7.4 180.328 7.4C181.438 7.4 182.472 7.656 183.432 8.168C184.392 8.68 185.214 9.3947 185.896 10.312V1.16H188.776ZM180.84 21.224C181.779 21.224 182.632 20.9893 183.4 20.52C184.168 20.0507 184.766 19.4 185.192 18.568C185.619 17.7147 185.832 16.7653 185.832 15.72C185.832 14.6747 185.619 13.736 185.192 12.904C184.766 12.0507 184.168 11.3893 183.4 10.92C182.632 10.4507 181.779 10.216 180.84 10.216C179.902 10.216 179.059 10.4507 178.312 10.92C177.566 11.3893 176.979 12.0507 176.552 12.904C176.126 13.736 175.912 14.6747 175.912 15.72C175.912 16.7653 176.126 17.7147 176.552 18.568C176.979 19.4 177.566 20.0507 178.312 20.52C179.059 20.9893 179.902 21.224 180.84 21.224Z" fill="white"/>
<path d="M30 3.21997H12C7.02944 3.21997 3 7.24941 3 12.22C3 17.1905 7.02944 21.22 12 21.22H30C34.9706 21.22 39 17.1905 39 12.22C39 7.24941 34.9706 3.21997 30 3.21997Z" stroke="#97D317" stroke-width="5"/>
<path d="M29 17.72C32.0376 17.72 34.5 15.2575 34.5 12.22C34.5 9.1824 32.0376 6.71997 29 6.71997C25.9624 6.71997 23.5 9.1824 23.5 12.22C23.5 15.2575 25.9624 17.72 29 17.72Z" fill="white"/>
</svg>
