<svg width="83" height="83" viewBox="0 0 83 83" fill="none" xmlns="http://www.w3.org/2000/svg">
<g clip-path="url(#clip0_25_1655)">
<g clip-path="url(#clip1_25_1655)">
<path d="M82.7998 41.2998C82.7998 18.6561 64.4435 0.299805 41.7998 0.299805C19.1561 0.299805 0.799805 18.6561 0.799805 41.2998C0.799805 63.9435 19.1561 82.2998 41.7998 82.2998C64.4435 82.2998 82.7998 63.9435 82.7998 41.2998Z" fill="#92D700"/>
<path d="M48.8396 26.5796C48.5646 26.5796 48.2871 26.5896 48.0196 26.6196C47.9471 26.6271 47.8721 26.6496 47.7996 26.6596C47.6046 26.6846 47.4096 26.7196 47.2196 26.7596C47.1471 26.7746 47.0921 26.7821 47.0196 26.7996C46.8321 26.8446 46.6421 26.8996 46.4596 26.9596C46.3996 26.9796 46.3396 26.9971 46.2796 27.0196C46.0871 27.0896 45.8846 27.1746 45.6996 27.2596C45.6546 27.2796 45.6246 27.2996 45.5796 27.3196C45.3821 27.4146 45.1871 27.5096 44.9996 27.6196C44.9696 27.6371 44.9296 27.6621 44.8996 27.6796C44.6996 27.7996 44.5071 27.9221 44.3196 28.0596C44.3046 28.0721 44.2946 28.0871 44.2796 28.0996C44.0796 28.2496 43.8846 28.4121 43.6996 28.5796C43.6946 28.5846 43.6846 28.5746 43.6796 28.5796C43.4871 28.7546 43.3121 28.9471 43.1396 29.1396C41.9196 30.4996 41.1596 32.2921 41.1596 34.2596C41.1596 36.9146 42.5271 38.7346 43.9796 40.6596C44.5071 41.3596 45.0696 42.0971 45.5996 42.9196C46.7421 44.3546 47.7971 46.0421 48.3796 48.2796C48.4696 48.6271 48.4671 48.8996 48.6196 49.0196C48.6896 49.0346 48.7571 49.0396 48.8396 49.0396C48.9221 49.0396 48.9896 49.0321 49.0596 49.0196C49.2121 48.8996 49.2096 48.6271 49.2996 48.2796C49.8821 46.0421 50.9371 44.3546 52.0796 42.9196C52.6096 42.0971 53.1721 41.3571 53.6996 40.6596C53.7896 40.5421 53.8721 40.4171 53.9596 40.2996C54.0971 40.1171 54.2271 39.9421 54.3596 39.7596C54.4221 39.6746 54.4771 39.5846 54.5396 39.4996C54.6396 39.3571 54.7421 39.2221 54.8396 39.0796C54.9096 38.9746 54.9721 38.8646 55.0396 38.7596C55.1246 38.6296 55.2221 38.5121 55.2996 38.3796C55.3696 38.2621 55.4346 38.1396 55.4996 38.0196C55.5696 37.8946 55.6371 37.7671 55.6996 37.6396C55.7646 37.5096 55.8221 37.3721 55.8796 37.2396C55.9346 37.1171 55.9921 36.9846 56.0396 36.8596C56.0971 36.7121 56.1321 36.5721 56.1796 36.4196C56.2171 36.2996 56.2671 36.1821 56.2996 36.0596C56.3446 35.8796 56.3671 35.6871 56.3996 35.4996C56.4171 35.3946 56.4471 35.3071 56.4596 35.1996C56.4971 34.8996 56.5196 34.5821 56.5196 34.2596C56.5196 30.0246 53.0746 26.5796 48.8396 26.5796ZM29.8596 29.1396C28.3296 29.1396 27.0796 30.3896 27.0796 31.9196V53.2396C27.0796 53.3846 27.0971 53.5196 27.1196 53.6596C27.3246 54.9871 28.4746 56.0196 29.8596 56.0196H51.1796C51.3246 56.0196 51.4596 56.0021 51.5996 55.9796C52.8571 55.7846 53.8396 54.7471 53.9396 53.4596H53.9596V42.4396C53.6921 42.8071 53.4221 43.1921 53.1596 43.5996L53.0796 43.7196C51.7821 45.3496 50.9946 46.8521 50.5396 48.5996C50.5196 48.6746 50.5121 48.7346 50.4996 48.7996C50.4496 49.0596 50.3571 49.4746 50.0596 49.8196L52.6796 52.4396V53.2396C52.6796 54.0621 52.0021 54.7396 51.1796 54.7396H50.3796L41.3796 45.7596L43.6796 43.4196L45.9596 45.7196C45.5846 45.0571 45.1396 44.3971 44.5996 43.7196L44.5196 43.5996C44.1471 43.0221 43.7696 42.5171 43.3996 42.0196L30.6596 54.7396H29.8596C29.0371 54.7396 28.3596 54.0621 28.3596 53.2396V52.4396L41.4596 39.3196C40.5571 37.8896 39.8796 36.2971 39.8796 34.2596C39.8796 32.3571 40.4821 30.5921 41.4996 29.1396H29.8596ZM33.5596 31.6996C34.5746 31.6996 35.4846 32.0871 36.1796 32.7196L35.0796 33.8196C34.6671 33.4671 34.1446 33.2596 33.5596 33.2596C32.2571 33.2596 31.1996 34.3171 31.1996 35.6196C31.1996 36.9221 32.2571 37.9796 33.5596 37.9796C34.6546 37.9796 35.4021 37.3246 35.6796 36.4196H33.5596V34.9196H37.2396C37.5621 36.4446 36.9796 39.5196 33.5596 39.5196C31.3996 39.5196 29.6396 37.7796 29.6396 35.6196C29.6396 33.4596 31.3996 31.6996 33.5596 31.6996ZM48.8396 32.3396C49.8996 32.3396 50.7596 33.1996 50.7596 34.2596C50.7596 35.3196 49.8996 36.1796 48.8396 36.1796C47.7796 36.1796 46.9196 35.3196 46.9196 34.2596C46.9196 33.1996 47.7796 32.3396 48.8396 32.3396Z" fill="black"/>
</g>
</g>
<defs>
<clipPath id="clip0_25_1655">
<rect width="82" height="82" fill="white" transform="translate(0.799805 0.299805)"/>
</clipPath>
<clipPath id="clip1_25_1655">
<rect width="82" height="82" fill="white" transform="translate(0.799805 0.299805)"/>
</clipPath>
</defs>
</svg>
