<svg width="138" height="45" viewBox="0 0 138 45" fill="none" xmlns="http://www.w3.org/2000/svg">
<g clip-path="url(#clip0_25_1092)">
<g clip-path="url(#clip1_25_1092)">
<g clip-path="url(#clip2_25_1092)">
<mask id="mask0_25_1092" style="mask-type:luminance" maskUnits="userSpaceOnUse" x="0" y="0" width="138" height="45">
<path d="M138 0H0V45H138V0Z" fill="white"/>
</mask>
<g mask="url(#mask0_25_1092)">
<path d="M93.756 21.5811V24.2157H92.1045V25.9435H93.756V31.8143C93.756 33.8189 94.6628 34.6208 96.9443 34.6208C97.3452 34.6208 97.7271 34.573 98.0612 34.5158V32.807C97.7748 32.8357 97.5934 32.8548 97.2784 32.8548C96.257 32.8548 95.8083 32.3775 95.8083 31.2892V25.9435H98.0612V24.2157H95.8083V21.5811H93.756Z" fill="white"/>
<path d="M103.873 34.7642C106.908 34.7642 108.77 32.731 108.77 29.3613C108.77 26.0107 106.899 23.9678 103.873 23.9678C100.837 23.9678 98.9658 26.0107 98.9658 29.3613C98.9658 32.731 100.828 34.7642 103.873 34.7642ZM103.873 32.941C102.088 32.941 101.085 31.6332 101.085 29.3613C101.085 27.1084 102.088 25.7911 103.873 25.7911C105.648 25.7911 106.66 27.1084 106.66 29.3613C106.66 31.6236 105.648 32.941 103.873 32.941Z" fill="white"/>
<path d="M110.362 34.5634H112.415V28.4254C112.415 26.9648 113.513 25.9816 115.069 25.9816C115.431 25.9816 116.042 26.0484 116.214 26.1057V24.082C115.995 24.0247 115.603 23.9961 115.298 23.9961C113.942 23.9961 112.787 24.7407 112.491 25.7621H112.338V24.1679H110.362V34.5634Z" fill="white"/>
<path d="M121.31 25.7147C122.828 25.7147 123.821 26.7743 123.868 28.4067H118.618C118.733 26.7839 119.792 25.7147 121.31 25.7147ZM123.859 31.7573C123.477 32.5687 122.627 33.0173 121.386 33.0173C119.745 33.0173 118.685 31.8623 118.618 30.039V29.9245H125.959V29.2085C125.959 25.9438 124.212 23.9678 121.32 23.9678C118.389 23.9678 116.528 26.0775 116.528 29.3994C116.528 32.7214 118.351 34.7642 121.329 34.7642C123.706 34.7642 125.367 33.6187 125.835 31.7573H123.859Z" fill="white"/>
<path d="M80.2969 30.7249C80.4552 33.2776 82.5825 34.9101 85.7486 34.9101C89.1323 34.9101 91.2496 33.1984 91.2496 30.4676C91.2496 28.3206 90.0426 27.1334 87.1139 26.4507L85.5408 26.0648C83.6807 25.6295 82.9288 25.0457 82.9288 24.0266C82.9288 22.7404 84.0963 21.8994 85.8475 21.8994C87.5097 21.8994 88.6574 22.7206 88.8652 24.0365H91.0221C90.8935 21.6323 88.7761 19.9404 85.8772 19.9404C82.7606 19.9404 80.6828 21.6323 80.6828 24.175C80.6828 26.2726 81.8602 27.5192 84.4425 28.1228L86.2828 28.568C88.1726 29.0132 89.0037 29.6662 89.0037 30.7546C89.0037 32.021 87.6977 32.9412 85.9168 32.9412C84.0072 32.9412 82.6814 32.0804 82.4934 30.7249H80.2969Z" fill="white"/>
<path d="M59.036 23.9961C57.6232 23.9961 56.4013 24.7025 55.7713 25.8862H55.6186V24.1679H53.6426V38.019H55.6949V32.9883H55.8572C56.4013 34.0861 57.5755 34.7352 59.0551 34.7352C61.6802 34.7352 63.3507 32.6637 63.3507 29.3609C63.3507 26.058 61.6802 23.9961 59.036 23.9961ZM58.4537 32.8928C56.7354 32.8928 55.6568 31.5373 55.6568 29.3704C55.6568 27.1939 56.7354 25.8384 58.4633 25.8384C60.2006 25.8384 61.2411 27.1653 61.2411 29.3609C61.2411 31.566 60.2006 32.8928 58.4537 32.8928Z" fill="white"/>
<path d="M70.5321 23.9961C69.1193 23.9961 67.8975 24.7025 67.2674 25.8862H67.1147V24.1679H65.1387V38.019H67.1911V32.9883H67.3533C67.8975 34.0861 69.0716 34.7352 70.5512 34.7352C73.1763 34.7352 74.8469 32.6637 74.8469 29.3609C74.8469 26.058 73.1763 23.9961 70.5321 23.9961ZM69.9498 32.8928C68.2316 32.8928 67.1529 31.5373 67.1529 29.3704C67.1529 27.1939 68.2316 25.8384 69.9594 25.8384C71.6967 25.8384 72.7372 27.1653 72.7372 29.3609C72.7372 31.566 71.6967 32.8928 69.9498 32.8928Z" fill="white"/>
<path d="M49.9604 34.5632H52.3152L47.1604 20.2861H44.7759L39.6211 34.5632H41.8967L43.2126 30.7738H48.6544L49.9604 34.5632ZM45.8543 22.8783H46.0225L48.0904 28.9137H43.7766L45.8543 22.8783Z" fill="white"/>
<path d="M41 9.51758V16.405H43.4867C45.5391 16.405 46.7275 15.1401 46.7275 12.9398C46.7275 10.7729 45.5295 9.51758 43.4867 9.51758H41ZM42.0691 10.4913H43.3674C44.7945 10.4913 45.6393 11.3981 45.6393 12.9541C45.6393 14.534 44.8088 15.4313 43.3674 15.4313H42.0691V10.4913Z" fill="white"/>
<path d="M50.3674 16.5056C51.8852 16.5056 52.8159 15.4889 52.8159 13.8041C52.8159 12.1288 51.8804 11.1074 50.3674 11.1074C48.8496 11.1074 47.9141 12.1288 47.9141 13.8041C47.9141 15.4889 48.8448 16.5056 50.3674 16.5056ZM50.3674 15.594C49.4748 15.594 48.9737 14.9401 48.9737 13.8041C48.9737 12.6777 49.4748 12.019 50.3674 12.019C51.2552 12.019 51.7611 12.6777 51.7611 13.8041C51.7611 14.9353 51.2552 15.594 50.3674 15.594Z" fill="white"/>
<path d="M60.7415 11.207H59.7153L58.7893 15.1733H58.7082L57.6391 11.207H56.6558L55.5867 15.1733H55.5103L54.5796 11.207H53.5391L54.971 16.4048H56.0258L57.0949 12.5769H57.1761L58.25 16.4048H59.3144L60.7415 11.207Z" fill="white"/>
<path d="M61.9238 16.4054H62.9499V13.365C62.9499 12.5536 63.432 12.0477 64.1909 12.0477C64.9498 12.0477 65.3125 12.4629 65.3125 13.2982V16.4054H66.3387V13.0404C66.3387 11.8042 65.6992 11.1074 64.5393 11.1074C63.7566 11.1074 63.2411 11.4558 62.9881 12.0333H62.9118V11.2076H61.9238V16.4054Z" fill="white"/>
<path d="M67.9551 16.405H68.9812V9.17871H67.9551V16.405Z" fill="white"/>
<path d="M72.84 16.5056C74.3578 16.5056 75.2886 15.4889 75.2886 13.8041C75.2886 12.1288 74.3531 11.1074 72.84 11.1074C71.3222 11.1074 70.3867 12.1288 70.3867 13.8041C70.3867 15.4889 71.3175 16.5056 72.84 16.5056ZM72.84 15.594C71.9475 15.594 71.4463 14.9401 71.4463 13.8041C71.4463 12.6777 71.9475 12.019 72.84 12.019C73.7278 12.019 74.2337 12.6777 74.2337 13.8041C74.2337 14.9353 73.7278 15.594 72.84 15.594Z" fill="white"/>
<path d="M78.3467 15.6274C77.7883 15.6274 77.3826 15.3553 77.3826 14.8876C77.3826 14.4294 77.7071 14.1859 78.4231 14.1382L79.6927 14.0571V14.4914C79.6927 15.1358 79.1199 15.6274 78.3467 15.6274ZM78.0842 16.4913C78.7667 16.4913 79.3347 16.1953 79.645 15.6751H79.7261V16.4054H80.7141V12.8543C80.7141 11.7565 79.9791 11.1074 78.676 11.1074C77.4971 11.1074 76.6571 11.6801 76.5521 12.5727H77.5449C77.6594 12.2052 78.0556 11.9952 78.6283 11.9952C79.3299 11.9952 79.6927 12.3054 79.6927 12.8543V13.3029L78.2847 13.3841C77.0485 13.4604 76.3516 13.9998 76.3516 14.9353C76.3516 15.8851 77.0819 16.4913 78.0842 16.4913Z" fill="white"/>
<path d="M84.1964 16.4909C84.9124 16.4909 85.5185 16.152 85.8288 15.584H85.9099V16.405H86.8932V9.17871H85.867V12.0329H85.7906C85.509 11.4602 84.9076 11.1213 84.1964 11.1213C82.8839 11.1213 82.0391 12.1618 82.0391 13.8037C82.0391 15.4504 82.8743 16.4909 84.1964 16.4909ZM84.4876 12.0425C85.3467 12.0425 85.8861 12.725 85.8861 13.8085C85.8861 14.8967 85.3515 15.5697 84.4876 15.5697C83.6189 15.5697 83.0987 14.9062 83.0987 13.8037C83.0987 12.7107 83.6237 12.0425 84.4876 12.0425Z" fill="white"/>
<path d="M93.547 16.5056C95.0648 16.5056 95.9954 15.4889 95.9954 13.8041C95.9954 12.1288 95.06 11.1074 93.547 11.1074C92.0292 11.1074 91.0938 12.1288 91.0938 13.8041C91.0938 15.4889 92.0244 16.5056 93.547 16.5056ZM93.547 15.594C92.6545 15.594 92.1533 14.9401 92.1533 13.8041C92.1533 12.6777 92.6545 12.019 93.547 12.019C94.4348 12.019 94.9408 12.6777 94.9408 13.8041C94.9408 14.9353 94.4348 15.594 93.547 15.594Z" fill="white"/>
<path d="M97.3545 16.4054H98.3807V13.365C98.3807 12.5536 98.8628 12.0477 99.6217 12.0477C100.38 12.0477 100.743 12.4629 100.743 13.2982V16.4054H101.769V13.0404C101.769 11.8042 101.13 11.1074 99.9701 11.1074C99.1873 11.1074 98.6718 11.4558 98.4189 12.0333H98.3425V11.2076H97.3545V16.4054Z" fill="white"/>
<path d="M106.495 9.91406V11.2315H105.67V12.0954H106.495V15.0307C106.495 16.0331 106.949 16.434 108.09 16.434C108.29 16.434 108.481 16.4101 108.648 16.3815V15.5271C108.505 15.5415 108.414 15.551 108.257 15.551C107.746 15.551 107.522 15.3124 107.522 14.7682V12.0954H108.648V11.2315H107.522V9.91406H106.495Z" fill="white"/>
<path d="M110.025 16.405H111.052V13.3694C111.052 12.5818 111.519 12.052 112.359 12.052C113.085 12.052 113.472 12.472 113.472 13.3025V16.405H114.498V13.0496C114.498 11.8134 113.815 11.1118 112.708 11.1118C111.925 11.1118 111.376 11.4602 111.123 12.0425H111.042V9.17871H110.025V16.405Z" fill="white"/>
<path d="M118.2 11.9808C118.958 11.9808 119.455 12.5106 119.479 13.3268H116.854C116.911 12.5154 117.441 11.9808 118.2 11.9808ZM119.474 15.0021C119.283 15.4078 118.858 15.6321 118.238 15.6321C117.417 15.6321 116.887 15.0546 116.854 14.143V14.0857H120.524V13.7277C120.524 12.0954 119.651 11.1074 118.204 11.1074C116.739 11.1074 115.808 12.1622 115.808 13.8232C115.808 15.4842 116.72 16.5056 118.209 16.5056C119.398 16.5056 120.228 15.9328 120.462 15.0021H119.474Z" fill="white"/>
<path d="M28.4857 22.8462C28.5106 20.913 29.5487 19.0838 31.1957 18.0713C30.1567 16.5874 28.4164 15.6466 26.6059 15.59C24.6747 15.3873 22.8026 16.7455 21.8185 16.7455C20.8154 16.7455 19.3003 15.6101 17.6688 15.6437C15.5421 15.7124 13.5596 16.9215 12.5249 18.7807C10.3008 22.6314 11.9598 28.2906 14.0903 31.4032C15.1562 32.9274 16.402 34.6299 18.0321 34.5695C19.6272 34.5033 20.2229 33.5524 22.1484 33.5524C24.0559 33.5524 24.6149 34.5695 26.278 34.5311C27.9897 34.5033 29.0681 33.0002 30.0966 31.4616C30.8625 30.3756 31.4518 29.1753 31.8428 27.9052C29.8313 27.0545 28.488 25.0302 28.4857 22.8462Z" fill="white"/>
<path d="M25.3444 13.5425C26.2777 12.4221 26.7375 10.9821 26.6261 9.52832C25.2003 9.67802 23.8833 10.3595 22.9374 11.4368C22.0125 12.4894 21.5312 13.9041 21.6222 15.3024C23.0485 15.3171 24.4507 14.6541 25.3444 13.5425Z" fill="white"/>
</g>
</g>
</g>
</g>
<defs>
<clipPath id="clip0_25_1092">
<rect width="138" height="45" fill="white"/>
</clipPath>
<clipPath id="clip1_25_1092">
<rect width="138" height="45" fill="white"/>
</clipPath>
<clipPath id="clip2_25_1092">
<rect width="138" height="45" fill="white"/>
</clipPath>
</defs>
</svg>
