<svg width="83" height="83" viewBox="0 0 83 83" fill="none" xmlns="http://www.w3.org/2000/svg">
<g clip-path="url(#clip0_25_1649)">
<g clip-path="url(#clip1_25_1649)">
<g clip-path="url(#clip2_25_1649)">
<path d="M82.7998 41.2998C82.7998 18.6561 64.4435 0.299805 41.7998 0.299805C19.1561 0.299805 0.799805 18.6561 0.799805 41.2998C0.799805 63.9435 19.1561 82.2998 41.7998 82.2998C64.4435 82.2998 82.7998 63.9435 82.7998 41.2998Z" fill="#FF6DB2"/>
<path d="M56.531 41.1769C56.5305 48.6992 50.9055 55.0329 43.436 55.9219V45.8719H46.076C46.4461 45.8739 46.7575 45.595 46.796 45.2269L47.081 43.0519C47.1008 42.8454 47.0358 42.6397 46.901 42.4819C46.763 42.3188 46.5597 42.2254 46.346 42.2269H43.436V39.6769C43.436 38.8485 44.1076 38.1769 44.936 38.1769H46.436C46.6295 38.181 46.8166 38.1069 46.9548 37.9714C47.0931 37.836 47.171 37.6505 47.171 37.4569V35.0419C47.1662 34.6662 46.8841 34.352 46.511 34.3069C46.511 34.3069 45.431 34.2169 44.141 34.2169C40.931 34.2169 39.161 36.1219 39.161 39.5869V42.2269H36.161C35.7551 42.2269 35.426 42.556 35.426 42.9619V45.1369C35.426 45.5429 35.7551 45.8719 36.161 45.8719H39.071V55.8019C31.3182 54.4274 25.982 47.246 26.9031 39.4264C27.8241 31.6067 34.6828 25.8617 42.5428 26.3261C50.4028 26.7905 56.5372 33.3032 56.531 41.1769Z" fill="black"/>
</g>
</g>
</g>
<defs>
<clipPath id="clip0_25_1649">
<rect width="82" height="82" fill="white" transform="translate(0.799805 0.299805)"/>
</clipPath>
<clipPath id="clip1_25_1649">
<rect width="82" height="82" fill="white" transform="translate(0.799805 0.299805)"/>
</clipPath>
<clipPath id="clip2_25_1649">
<rect width="82" height="82" fill="white" transform="translate(0.799805 0.299805)"/>
</clipPath>
</defs>
</svg>
