<svg width="44" height="44" viewBox="0 0 44 44" fill="none" xmlns="http://www.w3.org/2000/svg">
<mask id="mask0_25_1501" style="mask-type:luminance" maskUnits="userSpaceOnUse" x="0" y="0" width="44" height="44">
<path d="M43.4498 0.825195H0.549805V43.7252H43.4498V0.825195Z" fill="white"/>
</mask>
<g mask="url(#mask0_25_1501)">
<mask id="mask1_25_1501" style="mask-type:luminance" maskUnits="userSpaceOnUse" x="0" y="0" width="44" height="44">
<path d="M43.4498 0.825195H0.549805V43.7252H43.4498V0.825195Z" fill="white"/>
</mask>
<g mask="url(#mask1_25_1501)">
<path d="M30.2553 0.825195C30.355 0.825195 30.4549 0.825195 30.5604 0.825195C30.8053 3.85059 29.6506 6.11117 28.2471 7.7482C26.87 9.37392 24.9844 10.9507 21.9344 10.7114C21.731 7.72936 22.8877 5.63644 24.2892 4.00318C25.5891 2.48107 27.9721 1.12661 30.2553 0.825195Z" fill="black"/>
<path d="M39.488 32.3148C39.488 32.345 39.488 32.3712 39.488 32.3995C38.6309 34.9954 37.4082 37.2203 35.9163 39.2849C34.5543 41.1593 32.8852 43.6817 29.905 43.6817C27.3299 43.6817 25.6194 42.0258 22.9802 41.9806C20.1884 41.9354 18.6531 43.3652 16.1004 43.725C15.8085 43.725 15.5166 43.725 15.2301 43.725C13.3558 43.4538 11.8431 41.9693 10.7411 40.6318C7.49149 36.6796 4.98036 31.5744 4.51318 25.0414C4.51318 24.4009 4.51318 23.7623 4.51318 23.1218C4.71099 18.4461 6.98286 14.6446 10.0026 12.8022C11.5963 11.8227 13.7871 10.9882 16.2267 11.3611C17.2723 11.5232 18.3404 11.8811 19.2766 12.2353C20.1638 12.5762 21.2734 13.181 22.3246 13.1489C23.0367 13.1282 23.745 12.757 24.4628 12.4952C26.5651 11.736 28.6259 10.8657 31.3424 11.2745C34.6071 11.768 36.9241 13.2186 38.3559 15.4565C35.5942 17.2141 33.4108 19.8628 33.7838 24.3858C34.1154 28.4944 36.504 30.8981 39.488 32.3148Z" fill="black"/>
</g>
</g>
</svg>
