<svg width="63" height="62" viewBox="0 0 63 62" fill="none" xmlns="http://www.w3.org/2000/svg">
<path d="M62.25 31C62.25 13.8792 48.3708 0 31.25 0C14.1292 0 0.25 13.8792 0.25 31C0.25 48.1208 14.1292 62 31.25 62C48.3708 62 62.25 48.1208 62.25 31Z" fill="#FF9C00"/>
<path d="M36.8584 35.7559C35.8741 35.1428 34.6426 35.0827 33.6034 35.5971L29.6338 31.6276C29.9277 30.9571 29.9928 30.2085 29.8191 29.4973C29.7895 29.3982 29.7541 29.3011 29.7132 29.2062L33.6034 25.3161C35.06 26.0343 36.8228 25.5789 37.7494 24.2451C38.676 22.9114 38.4876 21.1005 37.3063 19.986C36.1249 18.8716 34.3061 18.7888 33.0286 19.7915C31.751 20.7942 31.399 22.5805 32.2008 23.9929L28.5356 27.6052C27.2877 26.7181 25.5941 26.8034 24.4415 27.8113C23.289 28.8192 22.9787 30.4863 23.6915 31.8414C24.4043 33.1964 25.9538 33.8852 27.4374 33.5065C27.7457 33.4159 28.0397 33.2823 28.3107 33.1096L32.2802 37.0791C31.4649 38.6729 32.0716 40.6261 33.6464 41.4776C35.2212 42.3291 37.1878 41.7672 38.075 40.2123C38.9623 38.6573 38.4455 36.6785 36.9113 35.7559H36.8584Z" fill="black"/>
</svg>
