<svg width="80" height="80" viewBox="0 0 80 80" fill="none" xmlns="http://www.w3.org/2000/svg">
<path d="M36.668 66.4473V74.999C36.668 77.749 34.418 79.999 31.668 79.999C28.918 79.999 26.668 77.749 26.668 74.999V66.4473H36.668Z" fill="white"/>
<path d="M53.332 66.4473V74.999C53.332 77.749 51.082 79.999 48.332 79.999C45.582 79.999 43.332 77.749 43.332 74.999V66.4473H53.332Z" fill="white"/>
<path d="M61.6658 34.9983V61.6653C61.6658 65.3485 58.6825 68.332 54.999 68.332H24.9988C21.3154 68.332 18.332 65.3485 18.332 61.6653V34.9983C18.332 31.315 21.3154 28.3315 24.9988 28.3315H54.999C58.6825 28.3315 61.6658 31.315 61.6658 34.9983Z" fill="white"/>
<path d="M56.3834 2.58162L51.9534 9.24835C51.0034 8.64835 50.0034 8.14835 48.9531 7.74835L53.6166 0.74828C54.1166 -0.0183933 55.1499 -0.235061 55.9166 0.28161C56.6834 0.781615 56.8999 1.81496 56.3834 2.58162Z" fill="white"/>
<path d="M31.0442 7.88335C29.9942 8.28335 28.9942 8.78335 28.0442 9.38335L23.6175 2.58162C23.1009 1.81496 23.3175 0.781615 24.0842 0.28161C24.8509 -0.235061 25.8842 -0.0183933 26.3842 0.74828L31.0442 7.88335Z" fill="white"/>
<path d="M75 38.332V51.6655C75 54.4155 72.75 56.6655 70 56.6655C67.25 56.6655 65 54.4155 65 51.6655V38.332C65 35.582 67.25 33.332 70 33.332C72.75 33.332 75 35.582 75 38.332Z" fill="white"/>
<path d="M15.0001 38.332V51.6655C15.0001 54.4155 12.7501 56.6655 10 56.6655C7.25002 56.6655 5 54.4155 5 51.6655V38.332C5 35.582 7.25002 33.332 10 33.332C12.7501 33.332 15.0001 35.582 15.0001 38.332Z" fill="white"/>
<path d="M52.9823 7.74856C52.0323 7.14854 51.0323 6.64854 49.9823 6.24854C47.9323 5.43186 45.6823 4.99854 43.3323 4.99854H36.6655C34.3155 4.99854 32.0655 5.43186 30.0155 6.24854C28.9655 6.64854 27.9655 7.14854 27.0155 7.74856C21.7987 10.9819 18.332 16.7486 18.332 23.332C18.332 24.2487 19.0821 24.9987 19.9987 24.9987H59.999C60.9158 24.9987 61.6658 24.2487 61.6658 23.332C61.6658 16.7486 58.199 10.9819 52.9823 7.74856ZM34.9988 16.6653H33.3323C32.4155 16.6653 31.6655 15.9153 31.6655 14.9986C31.6655 14.0819 32.4155 13.3319 33.3323 13.3319H34.9988C35.9155 13.3319 36.6655 14.0819 36.6655 14.9986C36.6655 15.9153 35.9155 16.6653 34.9988 16.6653ZM46.6658 16.6653H44.999C44.0823 16.6653 43.3323 15.9153 43.3323 14.9986C43.3323 14.0819 44.0823 13.3319 44.999 13.3319H46.6658C47.5823 13.3319 48.3323 14.0819 48.3323 14.9986C48.3323 15.9153 47.5823 16.6653 46.6658 16.6653Z" fill="white"/>
</svg>
