<svg width="132" height="27" viewBox="0 0 132 27" fill="none" xmlns="http://www.w3.org/2000/svg">
<path fill-rule="evenodd" clip-rule="evenodd" d="M13.2824 22.3229C15.8201 22.3229 18.125 21.3439 19.8259 19.75L13.2701 13.4386L6.66486 19.6798C8.37268 21.3152 10.7076 22.3229 13.2824 22.3229ZM14.8577 9.78498L22.0043 16.665C22.4894 15.5472 22.7578 14.317 22.7578 13.0254C22.7578 7.89047 18.5156 3.72782 13.2824 3.72782C8.04924 3.72782 3.80692 7.89047 3.80692 13.0254C3.80692 14.2809 4.06056 15.4784 4.52028 16.5709L11.7174 9.7706C12.5956 8.94072 13.9874 8.94709 14.8577 9.78498ZM13.2824 26.0219C20.5975 26.0219 26.5278 20.2031 26.5278 13.0254C26.5278 5.84756 20.5975 0.0288086 13.2824 0.0288086C5.96722 0.0288086 0.0371094 5.84756 0.0371094 13.0254C0.0371094 20.2031 5.96722 26.0219 13.2824 26.0219ZM97.196 7.25503C96.26 6.19797 94.9795 5.66945 93.3548 5.66945C91.6419 5.66945 90.2026 6.21531 89.0369 7.30703V0.938719H85.1692V20.0436H89.0369V12.6616C89.0369 11.5352 89.3282 10.6428 89.9111 9.98431C90.4939 9.32581 91.2709 8.99656 92.2422 8.99656C93.1078 8.99656 93.7346 9.25649 94.1232 9.77636C94.5294 10.2963 94.7325 11.0846 94.7325 12.1417V20.0436H98.6V11.5178C98.6 9.73304 98.132 8.31207 97.196 7.25503ZM47.322 5.98138H44.4345L44.0106 7.33302C42.7039 6.18932 41.1409 5.61747 39.3219 5.61747C37.1673 5.61747 35.3746 6.31928 33.9443 7.72291C32.5313 9.12652 31.8249 10.8853 31.8249 12.9995C31.8249 15.1309 32.5313 16.9071 33.9443 18.328C35.3746 19.7316 37.1673 20.4335 39.3219 20.4335C41.1056 20.4335 42.6509 19.8789 43.9577 18.7699L44.2757 20.0176H47.322V5.98138ZM39.6134 16.8464C38.5007 16.8464 37.5734 16.4825 36.8318 15.7547C36.1075 15.0269 35.7456 14.1085 35.7456 12.9995C35.7456 12.2716 35.9135 11.6219 36.249 11.05C36.5845 10.4608 37.0436 10.0017 37.6264 9.67239C38.2269 9.3258 38.8979 9.15254 39.6398 9.15254C40.7524 9.15254 41.6795 9.51643 42.4213 10.2442C43.1631 10.972 43.5338 11.8904 43.5338 12.9995C43.5338 14.1085 43.1631 15.0269 42.4213 15.7547C41.6795 16.4825 40.7434 16.8464 39.6134 16.8464ZM63.5456 7.72291C62.1328 6.31928 60.3491 5.61747 58.1946 5.61747C56.4108 5.61747 54.8832 6.17198 53.6117 7.28103L52.9494 6.00738H50.3797V25.1122H54.2474V19.2897C55.413 20.0695 56.7287 20.4595 58.1946 20.4595C60.3314 20.4595 62.1151 19.7577 63.5456 18.354C64.9761 16.9331 65.6915 15.1568 65.6915 13.0255C65.6915 10.894 64.9761 9.12652 63.5456 7.72291ZM57.8501 16.8724C56.7375 16.8724 55.8104 16.5085 55.0686 15.7807C54.3446 15.0529 53.9824 14.1345 53.9824 13.0255C53.9824 12.2976 54.1415 11.6391 54.4593 11.05C54.795 10.4608 55.2629 10.0017 55.8634 9.67239C56.4637 9.34314 57.1349 9.17853 57.8765 9.17853C58.6183 9.17853 59.2807 9.34314 59.8635 9.67239C60.4639 10.0017 60.9319 10.4608 61.2674 11.05C61.6029 11.6391 61.7708 12.2976 61.7708 13.0255C61.7708 14.1345 61.3998 15.0529 60.6581 15.7807C59.9165 16.5085 58.9805 16.8724 57.8501 16.8724ZM75.5892 5.61747C77.7438 5.61747 79.5276 6.31928 80.9405 7.72291C82.3709 9.12652 83.0861 10.894 83.0861 13.0255C83.0861 15.1568 82.3709 16.9331 80.9405 18.354C79.5099 19.7577 77.7263 20.4595 75.5892 20.4595C74.1236 20.4595 72.8079 20.0695 71.6423 19.2897V25.1122H67.7746V6.00738H70.3441L71.0066 7.28103C72.2781 6.17198 73.8056 5.61747 75.5892 5.61747ZM72.4634 15.7807C73.205 16.5085 74.1323 16.8724 75.245 16.8724C76.3751 16.8724 77.3111 16.5085 78.0531 15.7807C78.7947 15.0529 79.1656 14.1345 79.1656 13.0255C79.1656 12.2976 78.9977 11.6391 78.6623 11.05C78.3265 10.4608 77.8587 10.0017 77.2581 9.67239C76.6753 9.34314 76.0131 9.17853 75.2715 9.17853C74.5298 9.17853 73.8586 9.34314 73.2581 9.67239C72.6578 10.0017 72.1896 10.4608 71.8541 11.05C71.5361 11.6391 71.3773 12.2976 71.3773 13.0255C71.3773 14.1345 71.7393 15.0529 72.4634 15.7807ZM112.868 18.718C111.65 19.8616 110.025 20.4335 107.994 20.4335C105.981 20.4335 104.356 19.8529 103.12 18.692C101.901 17.531 101.292 16.006 101.292 14.1172V6.00738H105.16V13.6752C105.16 14.6803 105.407 15.4688 105.902 16.0407C106.414 16.5952 107.111 16.8724 107.994 16.8724C108.895 16.8724 109.593 16.5952 110.087 16.0407C110.598 15.4688 110.855 14.6803 110.855 13.6752V6.00738H114.722V14.1172C114.722 16.0233 114.104 17.5569 112.868 18.718ZM131.964 0.938719H128.096V6.76116C126.93 5.9987 125.623 5.61747 124.176 5.61747C122.745 5.61747 121.455 5.93806 120.308 6.57922C119.16 7.22038 118.259 8.10414 117.605 9.23053C116.97 10.3569 116.652 11.6219 116.652 13.0255C116.652 14.4291 116.97 15.7028 117.605 16.8464C118.259 17.9728 119.16 18.8566 120.308 19.4978C121.455 20.1388 122.745 20.4595 124.176 20.4595C125.888 20.4595 127.381 19.9309 128.652 18.8739L129.103 20.0436H131.964V0.938719ZM124.467 16.8724C123.354 16.8724 122.427 16.5085 121.685 15.7807C120.944 15.0529 120.572 14.1345 120.572 13.0255C120.572 11.9164 120.944 10.9979 121.685 10.2702C122.427 9.54243 123.354 9.17853 124.467 9.17853C125.597 9.17853 126.533 9.54243 127.274 10.2702C128.017 10.9979 128.388 11.9164 128.388 13.0255C128.388 14.1172 128.017 15.0356 127.274 15.7807C126.533 16.5085 125.597 16.8724 124.467 16.8724Z" fill="#0084FF"/>
</svg>
