<svg width="66" height="80" viewBox="0 0 66 80" fill="none" xmlns="http://www.w3.org/2000/svg">
<path d="M60.0795 69.9952C56.764 74.955 53.2487 79.7947 47.896 79.8747C42.5432 79.9948 40.8257 76.715 34.7537 76.715C28.6422 76.715 26.7647 79.7948 21.6915 79.9948C16.4585 80.1947 12.5038 74.715 9.14839 69.8753C2.31761 59.996 -2.9153 41.7972 4.1152 29.558C7.5905 23.4785 13.822 19.6387 20.573 19.5187C25.6862 19.4387 30.5595 22.9985 33.7152 22.9985C36.831 22.9985 42.743 18.7188 48.9347 19.3587C51.5312 19.4787 58.8012 20.3986 63.475 27.2782C63.1155 27.5182 54.8067 32.3978 54.8867 42.5173C55.0065 54.5963 65.4722 58.636 65.5922 58.676C65.4722 58.956 63.9145 64.4357 60.0795 69.9952ZM37.2705 5.9996C40.1865 2.67982 45.02 0.159989 49.0145 0C49.5337 4.6797 47.6565 9.39937 44.8602 12.7591C42.104 16.1589 37.55 18.7987 33.0762 18.4388C32.477 13.8391 34.714 9.0394 37.2705 5.9996Z" fill="white"/>
</svg>
