<svg width="82" height="82" viewBox="0 0 82 82" fill="none" xmlns="http://www.w3.org/2000/svg">
<path d="M82 41C82 18.3563 63.6437 0 41 0C18.3563 0 0 18.3563 0 41C0 63.6437 18.3563 82 41 82C63.6437 82 82 63.6437 82 41Z" fill="#92D700"/>
<path d="M27.0101 46.768C26.0535 47.3203 25.7257 48.5435 26.278 49.5001C26.8303 50.4567 28.0535 50.7844 29.0101 50.2322L27.0101 46.768ZM55.9227 34.0177C56.2086 32.9508 55.5754 31.8541 54.5085 31.5682L37.1218 26.9095C36.0549 26.6236 34.9582 27.2568 34.6723 28.3237C34.3864 29.3907 35.0196 30.4873 36.0865 30.7732L51.5413 34.9143L47.4002 50.3691C47.1144 51.4361 47.7475 52.5327 48.8144 52.8186C49.8814 53.1045 50.9781 52.4713 51.2639 51.4044L55.9227 34.0177ZM29.0101 50.2322L54.9908 35.2321L52.9908 31.768L27.0101 46.768L29.0101 50.2322Z" fill="#171717"/>
</svg>
