<svg width="130" height="33" viewBox="0 0 130 33" fill="none" xmlns="http://www.w3.org/2000/svg">
<mask id="mask0_25_1514" style="mask-type:luminance" maskUnits="userSpaceOnUse" x="0" y="0" width="130" height="33">
<path d="M129.419 0.290039H0.582031V32.7893H129.419V0.290039Z" fill="white"/>
</mask>
<g mask="url(#mask0_25_1514)">
<mask id="mask1_25_1514" style="mask-type:luminance" maskUnits="userSpaceOnUse" x="0" y="-3" width="130" height="39">
<path d="M129.419 -2.33398H0.582031V35.4133H129.419V-2.33398Z" fill="white"/>
</mask>
<g mask="url(#mask1_25_1514)">
<path d="M0.742677 9.62045L6.32772 20.2594C6.70906 20.9843 7.64901 21.5725 8.42546 21.5706L19.819 21.5465C20.5967 21.545 20.9177 20.9551 20.5366 20.2291L14.951 9.59075C14.57 8.86454 13.6303 8.27783 12.8531 8.27954L1.4598 8.30323C1.44222 8.30323 1.42521 8.30381 1.40764 8.30381C0.668515 8.33171 0.369714 8.91059 0.742677 9.62045Z" fill="#75B82C"/>
<path d="M22.3844 22.0163L25.7666 28.3273C25.9966 28.7578 26.5593 29.1033 27.0227 29.0981L33.811 29.0263C34.2747 29.0216 34.4615 28.6687 34.2317 28.2378L30.8506 21.9274C30.6201 21.4966 30.0566 21.1519 29.5944 21.1568L22.8059 21.2281C22.798 21.2281 22.7904 21.2281 22.7826 21.2281C22.3363 21.2447 22.1579 21.5922 22.3844 22.0163Z" fill="#75B82C"/>
<path d="M22.4238 -1.94623L15.6363 6.76598C15.1724 7.3612 15.1108 8.42781 15.4983 9.15141L21.1729 19.7422C21.5596 20.4645 22.2497 20.5687 22.7128 19.9749L29.5011 11.261C29.9641 10.667 30.0262 9.5991 29.638 8.87617L23.9642 -1.71487C23.7393 -2.13289 23.4141 -2.34365 23.0898 -2.33233C22.8544 -2.32276 22.6189 -2.19647 22.4238 -1.94623Z" fill="#3D90D5"/>
<path d="M20.8341 22.1221L16.7887 27.3134C16.5117 27.6679 16.476 28.3039 16.7063 28.7341L20.0877 35.0449C20.319 35.4756 20.7297 35.5376 21.006 35.1831L25.0503 29.9923C25.3261 29.6372 25.3629 29.0007 25.1329 28.5712L21.7513 22.2602C21.6182 22.011 21.4238 21.8852 21.2301 21.8916C21.0904 21.8965 20.9494 21.9721 20.8341 22.1221Z" fill="#3D90D5"/>
<path d="M95.0454 23.9704H97.312V6.90869H95.0454V23.9704Z" fill="#3D90D5"/>
<path d="M54.4419 12.2993C51.192 12.2993 48.5573 14.9347 48.5573 18.1853H48.5532V29.0522H50.8198V18.1853H50.8308C50.8308 16.1746 52.4609 14.5447 54.4701 14.5447C56.4806 14.5447 58.1101 16.1746 58.1101 18.1853C58.1101 20.1953 56.4806 21.8252 54.4701 21.8252C53.3364 21.8252 52.3233 21.3058 51.6562 20.4926V23.3697C52.4855 23.8165 53.4351 24.0709 54.4419 24.0709C57.6938 24.0709 60.3291 21.4351 60.3291 18.1853C60.3291 14.9347 57.6938 12.2993 54.4419 12.2993Z" fill="#75B82C"/>
<path d="M67.2159 12.2993C63.9648 12.2993 61.3307 14.9347 61.3307 18.1853H61.3267V29.0522H63.5927V18.1853H63.6046C63.6046 16.1746 65.2334 14.5447 67.2432 14.5447C69.2546 14.5447 70.884 16.1746 70.884 18.1853C70.884 20.1953 69.2546 21.8252 67.2432 21.8252C66.1093 21.8252 65.0967 21.3058 64.4293 20.4926V23.3697C65.2581 23.8165 66.2095 24.0709 67.2159 24.0709C70.466 24.0709 73.1014 21.4351 73.1014 18.1853C73.1014 14.9347 70.466 12.2993 67.2159 12.2993Z" fill="#75B82C"/>
<path d="M41.283 6.90869C38.0319 6.90869 35.3975 9.5445 35.3975 12.7947V23.9704H37.6641V12.7947H37.6675C37.6675 10.7975 39.2857 9.17847 41.2838 9.17847C43.2808 9.17847 44.8989 10.7975 44.8989 12.7947H44.9021V14.0742H39.0791V16.3402H44.9021V23.9704H47.1699V12.7947C47.1699 9.5445 44.5343 6.90869 41.283 6.90869Z" fill="#75B82C"/>
<path d="M87.4774 12.7947C87.4774 10.7971 89.0973 9.17711 91.0962 9.17711L93.9499 9.17597V6.90869H91.0956C87.8458 6.90916 85.2104 9.5445 85.2104 12.7947V23.9704H87.4774V16.5727H93.7408V14.306H87.4774V12.7947Z" fill="#3D90D5"/>
<path d="M106.8 12.3735V19.4982C106.771 20.9316 105.603 22.0854 104.16 22.0854C102.721 22.0854 101.552 20.9316 101.525 19.4982H101.522V12.3735H99.2559V19.5054H99.2593C99.2863 21.7968 100.886 23.7067 103.029 24.2148V29.0523H105.295V24.2148C107.437 23.7067 109.037 21.7968 109.064 19.5054H109.066V12.3735H106.8Z" fill="#3D90D5"/>
<path d="M119.542 19.0769C119.312 19.9888 118.728 20.8112 117.848 21.3182C116.117 22.3189 113.905 21.7257 112.906 19.9957C111.906 18.2639 112.5 16.0526 114.23 15.053C115.617 14.2522 117.313 14.4761 118.446 15.4875L113.355 18.426L114.489 20.3897L116.845 19.0289L121.607 16.2794C121.485 15.9255 121.331 15.5789 121.137 15.2429C119.511 12.4279 115.91 11.4635 113.096 13.0891C110.28 14.7143 109.317 18.3141 110.942 21.1289C112.568 23.9435 116.166 24.9085 118.982 23.2837C120.592 22.3544 121.595 20.7803 121.855 19.0769H119.542Z" fill="#3D90D5"/>
<path d="M128.96 12.2993C127.594 12.2993 126.339 12.7657 125.342 13.5454V12.3529H123.075V23.9703H125.342V18.1852C125.342 16.1868 126.962 14.5671 128.96 14.5671V14.5657H129.42V12.2993H128.96Z" fill="#3D90D5"/>
<path d="M81.7026 18.5818L76.065 15.953L76.0668 15.9509C75.7951 15.8159 75.6796 15.4904 75.8076 15.215C75.9016 15.0122 76.1031 14.8953 76.3127 14.8945V14.8899H82.745V12.6233H76.3127V12.6262C75.2481 12.6274 74.2301 13.2279 73.7505 14.2561C73.0918 15.6671 73.7006 17.3428 75.1068 18.0068L80.7449 20.6366L80.7444 20.6379L80.7464 20.6391C81.0269 20.7692 81.1474 21.1012 81.0167 21.3809C80.9226 21.5846 80.7191 21.7031 80.5086 21.7019V21.7048H73.918V23.9703H80.509V23.9686C81.5729 23.9669 82.5907 23.3663 83.0699 22.338C83.7307 20.9235 83.1187 19.2418 81.7026 18.5818Z" fill="#75B82C"/>
</g>
</g>
</svg>
