<svg width="62" height="62" viewBox="0 0 62 62" fill="none" xmlns="http://www.w3.org/2000/svg">
<path d="M62 31C62 13.8792 48.1208 0 31 0C13.8792 0 0 13.8792 0 31C0 48.1208 13.8792 62 31 62C48.1208 62 62 48.1208 62 31Z" fill="#FF6DB2"/>
<path d="M43.1589 28.0663H37.6061L36.3721 34.236H41.3079V37.3209H35.7552L34.4486 43.8536H31.2549L32.5614 37.3209H26.9723L25.6658 43.8536H22.472L23.7786 37.3209H18.8428V34.236H24.3956L25.6295 28.0663H20.6937V24.9814H26.2465L27.553 18.4487H30.7468L29.4402 24.9814H35.0293L36.3358 18.4487H39.5296L38.2231 24.9814H43.1589V28.0663ZM33.1784 34.236L34.4123 28.0663H28.8233L27.5893 34.236H33.1784Z" fill="#171717"/>
</svg>
