<svg width="82" height="82" viewBox="0 0 82 82" fill="none" xmlns="http://www.w3.org/2000/svg">
<path d="M82 41C82 18.3563 63.6437 0 41 0C18.3563 0 0 18.3563 0 41C0 63.6437 18.3563 82 41 82C63.6437 82 82 63.6437 82 41Z" fill="#FF7A00"/>
<path fill-rule="evenodd" clip-rule="evenodd" d="M55.175 38.1948V38.6148C55.9179 39.5478 56.219 40.7575 56 41.9298L52.88 51.6798C52.2673 53.2678 50.7421 54.3164 49.04 54.3198H30.05C27.8161 54.2714 26.0238 52.4591 26 50.2248V33.3198C25.9997 30.2423 28.4727 27.7359 31.55 27.6948H38C40.0711 27.6948 41.75 29.3738 41.75 31.4448C41.75 32.2733 42.4216 32.9448 43.25 32.9448H50C52.8702 32.9859 55.1753 35.3244 55.175 38.1948ZM31.55 29.9448C29.686 29.9448 28.175 31.4559 28.175 33.3198V43.9998L29.78 39.8298C30.377 38.208 31.9218 37.1303 33.65 37.1298H52.025C52.2845 37.1073 52.5455 37.1073 52.805 37.1298C52.3626 35.9649 51.2461 35.1947 50 35.1948H43.25C41.1823 35.1866 39.5082 33.5125 39.5 31.4448C39.5 30.6164 38.8284 29.9448 38 29.9448H31.55Z" fill="black"/>
</svg>
