<svg width="83" height="83" viewBox="0 0 83 83" fill="none" xmlns="http://www.w3.org/2000/svg">
<g clip-path="url(#clip0_25_1665)">
<g clip-path="url(#clip1_25_1665)">
<g clip-path="url(#clip2_25_1665)">
<path d="M82.7998 41.2998C82.7998 18.6561 64.4435 0.299805 41.7998 0.299805C19.1561 0.299805 0.799805 18.6561 0.799805 41.2998C0.799805 63.9435 19.1561 82.2998 41.7998 82.2998C64.4435 82.2998 82.7998 63.9435 82.7998 41.2998Z" fill="#FF7A00"/>
<path fill-rule="evenodd" clip-rule="evenodd" d="M50.7615 48.7653C50.7639 49.0624 50.6683 49.1478 50.3791 49.141C49.5579 49.1253 48.7365 49.1129 47.9165 49.1455C47.5048 49.1624 47.3809 49.0555 47.3865 48.627C47.4114 46.7808 47.3955 44.9335 47.3989 43.0864C47.3989 42.5801 47.3653 42.0784 47.1795 41.6013C46.8645 40.7958 46.3211 40.2503 45.4201 40.1714C44.4615 40.087 43.7653 40.5235 43.295 41.3325C42.9868 41.8624 42.9159 42.454 42.917 43.0593C42.9215 44.9257 42.9069 46.7909 42.9282 48.6562C42.9339 49.0579 42.8111 49.1579 42.4264 49.1444C41.6063 49.1163 40.785 49.1231 39.9639 49.1423C39.6489 49.15 39.5531 49.0555 39.5531 48.736C39.5634 44.893 39.5621 41.05 39.5555 37.2071C39.5555 36.9315 39.6118 36.8077 39.9221 36.8145C40.7985 36.8335 41.676 36.8335 42.5524 36.8145C42.8561 36.8089 42.936 36.919 42.9236 37.2026C42.9045 37.6628 42.9191 38.1239 42.9191 38.7044C44.2186 37.0979 45.7834 36.5704 47.642 36.945C49.442 37.3083 50.6805 38.9284 50.7323 41.0985C50.793 43.6522 50.7481 46.2093 50.7615 48.7653ZM35.636 35.3846C34.5458 35.3823 33.693 34.5183 33.6954 33.4204C33.6975 32.3358 34.5763 31.4516 35.6472 31.4538C36.7194 31.4572 37.5901 32.3448 37.5868 33.4304C37.5844 34.5308 36.7295 35.3868 35.636 35.3846ZM36.842 49.1455C36.0229 49.1129 35.2006 49.1253 34.3805 49.141C34.0868 49.1468 33.9541 49.0927 33.9552 48.7507C33.9665 44.9099 33.9653 41.0704 33.9563 37.2295C33.9552 36.9214 34.0295 36.8054 34.3579 36.8145C35.1961 36.8358 36.0364 36.8415 36.8735 36.8122C37.2593 36.7987 37.3302 36.9415 37.328 37.2903C37.3134 39.1915 37.3212 41.0928 37.3212 42.9952C37.3212 44.8773 37.31 46.7606 37.3291 48.6438C37.3336 49.0263 37.2458 49.1614 36.842 49.1455ZM55.1772 32.3561C55.1007 31.7452 55.0905 31.1163 54.753 30.5696C53.6608 28.7978 52.1532 27.7885 49.992 27.7999C44.5246 27.828 39.0571 27.7999 33.5895 27.819C32.7684 27.8212 31.9235 27.8482 31.1776 28.2892C29.3573 29.3669 28.2885 30.8733 28.2999 33.0817C28.3257 38.5673 28.2999 44.0527 28.3178 49.5393C28.3212 50.3122 28.3325 51.121 28.7374 51.8174C29.6937 53.4645 30.9538 54.6874 33.0237 54.6794C33.0833 54.6794 33.1295 54.7075 33.179 54.7334H50.4196C50.5153 54.6479 50.6323 54.6907 50.7403 54.6772C51.36 54.5995 52.0003 54.5962 52.5503 54.2407C54.0882 53.2462 55.2188 51.994 55.184 50.0152C55.184 49.9803 55.2087 49.9489 55.2346 49.9196V32.679C55.158 32.5811 55.1907 32.4652 55.1772 32.3561Z" fill="black"/>
</g>
</g>
</g>
<defs>
<clipPath id="clip0_25_1665">
<rect width="82" height="82" fill="white" transform="translate(0.799805 0.299805)"/>
</clipPath>
<clipPath id="clip1_25_1665">
<rect width="82" height="82" fill="white" transform="translate(0.799805 0.299805)"/>
</clipPath>
<clipPath id="clip2_25_1665">
<rect width="82" height="82" fill="white" transform="translate(0.799805 0.299805)"/>
</clipPath>
</defs>
</svg>
