<svg width="83" height="83" viewBox="0 0 83 83" fill="none" xmlns="http://www.w3.org/2000/svg">
<g clip-path="url(#clip0_25_1659)">
<g clip-path="url(#clip1_25_1659)">
<g clip-path="url(#clip2_25_1659)">
<path d="M82.7998 41.2998C82.7998 18.6561 64.4435 0.299805 41.7998 0.299805C19.1561 0.299805 0.799805 18.6561 0.799805 41.2998C0.799805 63.9435 19.1561 82.2998 41.7998 82.2998C64.4435 82.2998 82.7998 63.9435 82.7998 41.2998Z" fill="#703FFF"/>
<path d="M41.5599 36.875C39.2403 36.875 37.3599 38.7554 37.3599 41.075C37.3599 43.3946 39.2403 45.275 41.5599 45.275C43.8795 45.275 45.7599 43.3946 45.7599 41.075C45.7639 39.9599 45.3227 38.8893 44.5342 38.1007C43.7456 37.3122 42.675 36.871 41.5599 36.875Z" fill="black"/>
<path fill-rule="evenodd" clip-rule="evenodd" d="M47.3348 26.2998H35.7998C30.8292 26.2998 26.7998 30.3292 26.7998 35.2998V46.8348C26.7998 51.8054 30.8292 55.8348 35.7998 55.8348H47.3348C52.3054 55.8348 56.3348 51.8054 56.3348 46.8348V35.2998C56.3348 30.3292 52.3054 26.2998 47.3348 26.2998ZM41.5598 47.5098C38.0093 47.5016 35.133 44.6253 35.1248 41.0748C35.1187 38.4633 36.688 36.1058 39.0996 35.1037C41.5111 34.1015 44.289 34.6524 46.1356 36.499C47.9822 38.3456 48.5331 41.1235 47.5309 43.535C46.5288 45.9466 44.1713 47.5159 41.5598 47.5098ZM47.1622 33.6674C47.4191 34.2797 48.0208 34.6759 48.6848 34.6698C49.5795 34.6698 50.3048 33.9445 50.3048 33.0498C50.3109 32.3858 49.9148 31.7841 49.3024 31.5272C48.6901 31.2703 47.9833 31.4092 47.5137 31.8787C47.0442 32.3483 46.9053 33.0551 47.1622 33.6674Z" fill="black"/>
</g>
</g>
</g>
<defs>
<clipPath id="clip0_25_1659">
<rect width="82" height="82" fill="white" transform="translate(0.799805 0.299805)"/>
</clipPath>
<clipPath id="clip1_25_1659">
<rect width="82" height="82" fill="white" transform="translate(0.799805 0.299805)"/>
</clipPath>
<clipPath id="clip2_25_1659">
<rect width="82" height="82" fill="white" transform="translate(0.799805 0.299805)"/>
</clipPath>
</defs>
</svg>
